<svg width="112" height="112" fill="none" xmlns="http://www.w3.org/2000/svg"><path clip-rule="evenodd" d="M64.116 84.14c9.055-2.038 30.47-5.826 33.416-4.515 2.947 1.311 4.887 11.653 4.887 11.653s-8.192 6.045-12.001 6.045c-3.809-.072-19.475-8.812-26.302-13.182zM45.502 83.85c-9.414-2.55-30.47-5.827-33.416-4.516-2.946 1.31-4.887 11.653-4.887 11.653s8.193 6.045 12.001 6.045c3.81 0 19.475-8.813 26.302-13.183zM45.718 74.09s-15.02-29.861-19.763-33.066c-4.742-3.205-21.127 1.53-21.127 1.53.79 7.647 3.593 18.062 7.402 20.684 3.736 2.695 26.733 9.54 33.488 10.852zM64.116 74.09s15.02-29.861 19.762-33.066c4.743-3.205 21.128 1.53 21.128 1.53-.79 7.647-3.593 18.062-7.402 20.684-3.809 2.695-26.733 9.54-33.488 10.852z" stroke="#000" stroke-width="3" stroke-miterlimit="2.613" stroke-linecap="round" stroke-linejoin="round"/><path d="M54.915 104.971l.072-14.567" stroke="#000" stroke-width="3" stroke-miterlimit="2.613" stroke-linecap="round" stroke-linejoin="round"/><path clip-rule="evenodd" d="M54.916 68.482c3.234-4.37 14.445-31.1 14.804-38.164.36-7.065-15.091-21.049-15.091-21.049S39.825 23.253 40.184 30.318c.36 7.064 11.57 33.794 14.732 38.164z" stroke="#000" stroke-width="3" stroke-miterlimit="2.613" stroke-linecap="round" stroke-linejoin="round"/><path d="M54.915 80.718l.072-1.675" stroke="#000" stroke-width="3" stroke-miterlimit="2.613" stroke-linecap="round" stroke-linejoin="round"/></svg>