<svg width="361" height="74" fill="none" xmlns="http://www.w3.org/2000/svg"><path d="M319.785 72.602V1.398h18.17c7.132 0 12.552 1.48 16.258 4.425 3.69 2.927 5.552 7.22 5.552 12.813 0 4.062-1.088 7.401-3.279 10.017-2.207 2.598-5.37 4.342-9.471 5.18 4.628 1.202 8.104 3.34 10.46 6.399 2.372 3.043 3.541 6.958 3.541 11.76 0 6.317-2.026 11.317-6.094 15.034-4.053 3.717-9.588 5.576-16.588 5.576h-18.549zm13.607-11.086c.197 0 .461 0 .84.033.379.033.642.05.79.05 3.822 0 6.738-.922 8.797-2.731 2.059-1.826 3.097-4.408 3.097-7.78 0-3.619-1.021-6.366-3.064-8.224-2.043-1.859-5.057-2.796-9.027-2.796h-1.433v21.448zm0-32.107c.346.066.692.115.988.115.33.017.758.017 1.285.017 3.163 0 5.617-.773 7.363-2.303 1.763-1.563 2.636-3.75 2.636-6.58 0-2.845-.923-5.049-2.751-6.595-1.829-1.546-4.415-2.32-7.825-2.32-.164 0-.461.017-.856.05-.379.017-.659.033-.857.033V29.41h.017zm-63.157 43.193V1.398h30.557v11.185h-16.473v17.056h16.473v10.988h-16.473v20.51h16.473v11.465h-30.557zm-44.904-40.726c.181 0 .444 0 .807.05.379.033.642.05.823.05 3.591 0 6.375-.89 8.352-2.682 1.977-1.776 2.965-4.276 2.965-7.484 0-3.207-.972-5.658-2.916-7.303-1.96-1.661-4.826-2.483-8.598-2.483h-1.433v19.852zm-13.805 40.726V1.398h17.527c7.66 0 13.442 1.678 17.363 5.05 3.92 3.372 5.864 8.339 5.864 14.918 0 4.556-1.021 8.372-3.064 11.464-2.043 3.11-4.975 5.297-8.747 6.514l13.145 33.274h-14.677l-12.256-33.554h-1.35v33.554h-13.805v-.016zm-40.094 0V13.323H160.28V1.398h36.454v11.925h-11.251v59.279h-14.051zm-62.135-16.3l12.469-3.273c.363 2.977 1.236 5.263 2.603 6.875 1.367 1.645 3.114 2.434 5.206 2.434 1.861 0 3.376-.641 4.53-1.957 1.153-1.316 1.746-3.01 1.746-5.148 0-2.007-.593-3.898-1.779-5.691-1.186-1.793-3.921-4.458-8.187-7.994-5.898-4.902-9.868-8.997-11.943-12.32-2.076-3.322-3.113-6.892-3.113-10.724 0-5.576 1.746-10.033 5.221-13.438C119.526 1.694 124.106 0 129.756 0c5.419 0 9.785 1.332 13.096 3.98 3.278 2.665 5.436 6.58 6.424 11.777l-11.531 3.899c-.329-2.879-1.104-5.05-2.29-6.53-1.186-1.48-2.767-2.22-4.711-2.22-1.828 0-3.294.591-4.415 1.759-1.136 1.184-1.696 2.747-1.696 4.688 0 3.388 3.08 7.582 9.224 12.55 1.499 1.2 2.636 2.121 3.443 2.763 4.431 3.783 7.561 7.286 9.357 10.46 1.812 3.175 2.718 6.695 2.718 10.511 0 6.234-1.829 11.201-5.469 14.836-3.641 3.652-8.582 5.494-14.826 5.494-5.469 0-9.949-1.546-13.408-4.655-3.46-3.092-5.568-7.434-6.375-13.01zm-58.594 16.3L67.21 1.398h15.204l16.078 71.204H83.665l-1.993-11.547H67.209l-2.405 11.547h-14.1zm18.598-22.37H79.58l-3.344-22.451c-.247-1.81-.494-4.096-.725-6.859-.23-2.763-.428-5.84-.576-9.244h-.89c-.313 4.046-.593 7.583-.89 10.61-.263 3.026-.494 4.95-.659 5.773l-3.195 22.172zm-52.828 22.37v-29.08L0 1.398h15.353l5.436 18.652c.856 2.928 1.515 5.543 1.976 7.83.478 2.27.84 4.605 1.104 7.006.346-3.01.758-5.773 1.252-8.322a72.86 72.86 0 011.713-7.057L32.32 1.398h14.974l-16.654 42.6v28.604H16.473z" fill="#333"/></svg>